<?xml version="1.0" encoding="UTF-8"?><svg id="Calque_1" xmlns="http://www.w3.org/2000/svg" viewBox="0 0 62.73 92.82"><defs><style>.cls-1{fill:#d61026;}.cls-2{fill:#161f36;}</style></defs><g><polygon class="cls-2" points=".16 68.66 2.41 68.66 5.39 73.61 8.36 68.66 10.62 68.66 10.62 79.42 8.85 79.42 8.85 71.14 6.03 75.73 4.74 75.73 1.92 71.14 1.92 79.42 .16 79.42 .16 68.66"/><path class="cls-2" d="m17.39,68.66h2.34l4.2,10.76h-1.88l-1.14-3.01h-4.7l-1.14,3.01h-1.88l4.2-10.76Zm2.94,6.24l-1.77-4.66-1.77,4.66h3.54Z"/><path class="cls-2" d="m26.54,68.66h3.04c2.26,0,3.64,1.2,3.64,3.1,0,1.29-.65,2.26-1.75,2.75l3.43,4.9h-2.14l-3-4.55h-1.48v4.55h-1.75v-10.76Zm1.75,1.52v3.17h1.38c1.09,0,1.72-.58,1.72-1.62,0-.97-.63-1.55-1.72-1.55h-1.38Z"/><rect class="cls-2" x="37.19" y="68.66" width="1.75" height="10.76"/><polygon class="cls-2" points="42.87 68.66 45.15 68.66 50.68 77.1 50.68 68.66 52.45 68.66 52.45 79.42 50.16 79.42 44.63 70.98 44.63 79.42 42.87 79.42 42.87 68.66"/><polygon class="cls-2" points="56.37 68.66 62.36 68.66 62.36 70.19 58.12 70.19 58.12 73.18 61.75 73.18 61.75 74.7 58.12 74.7 58.12 77.9 62.36 77.9 62.36 79.42 56.37 79.42 56.37 68.66"/><polygon class="cls-2" points=".21 84.91 1.16 84.91 6.08 91.78 6.08 84.91 6.78 84.91 6.78 92.6 5.83 92.6 .92 85.72 .92 92.6 .21 92.6 .21 84.91"/><path class="cls-2" d="m11.6,84.91h.96l3.16,7.68h-.74l-.99-2.42h-3.83l-.99,2.42h-.75l3.17-7.68Zm2.14,4.64l-1.66-4.09-1.67,4.09h3.33Z"/><polygon class="cls-2" points="15.75 84.91 21.76 84.91 21.76 85.56 19.11 85.56 19.11 92.6 18.4 92.6 18.4 85.56 15.75 85.56 15.75 84.91"/><rect class="cls-2" x="23.45" y="84.91" width=".7" height="7.68"/><path class="cls-2" d="m34.06,88.75c0,2.2-1.62,4.06-4,4.06s-4.02-1.87-4.02-4.06,1.62-4.06,4.02-4.06,4,1.87,4,4.06m-.73,0c0-1.87-1.36-3.4-3.26-3.4s-3.28,1.54-3.28,3.4,1.36,3.4,3.28,3.4,3.26-1.55,3.26-3.4"/><polygon class="cls-2" points="35.95 84.91 36.89 84.91 41.81 91.78 41.81 84.91 42.51 84.91 42.51 92.6 41.57 92.6 36.65 85.72 36.65 92.6 35.95 92.6 35.95 84.91"/><path class="cls-2" d="m47.33,84.91h.96l3.16,7.68h-.73l-.99-2.42h-3.83l-.99,2.42h-.75l3.17-7.68Zm2.14,4.64l-1.66-4.09-1.67,4.09h3.33Z"/><polygon class="cls-2" points="53.11 84.91 53.81 84.91 53.81 91.95 57.01 91.95 57.01 92.6 53.11 92.6 53.11 84.91"/><polygon class="cls-2" points="58.7 84.91 62.61 84.91 62.61 85.54 59.41 85.54 59.41 88.38 62.17 88.38 62.17 89 59.41 89 59.41 91.97 62.61 91.97 62.61 92.6 58.7 92.6 58.7 84.91"/><rect class="cls-2" x=".02" y="81.86" width="62.52" height=".75"/></g><path class="cls-2" d="m46.87,17.6c-2.79,6.19-5.26,12.51-7.51,18.9l-2.56,7.68-3.03,9.9-2.8,10.12V1.99h-.06l-15.13,15.12L30.99,0l15.88,17.6Z"/><path class="cls-1" d="m53.91,47.26c.11.75-.05,1.47-.16,2.18-.6.13-1.21.27-1.69.57-.06.66.07,1.38-.13,1.96-.77.44-1.74.59-2.44,1.15.33-.06.7-.21,1.12-.14.25.58.24,1.33.27,1.96v.03c1.85-.2,3.7-.91,5.73-.6.3.54.15,1.24.27,1.85,1.87-.04,4.05-.56,5.75.26.29.52-.09,1.13-.13,1.69-.22.49-.3,1.15-.76,1.49-4.09-.24-8.21.4-11.76,1.98-.63-.21-.51-.88-.73-1.38-1.34.07-2.46,1.08-3.83,1.11-.44-.62-.8-1.34-.83-2.15.05-.28.35-.38.54-.56-1.27.41-2.5,1.08-3.7,1.8-.29.1-.56-.26-.7-.49-.36-.68-1.08-1.44-.58-2.24.53-.92,1.52-1.5,2.27-2.2-1.8.92-3.67,2.28-5.38,3.7-.62.1-.8-.64-1.19-1.02-.26-.5-.68-.98-.6-1.55,1.3-1.76,3.15-3.07,4.91-4.27,3.98-2.52,8.18-4.51,12.83-5.33.34,0,.7-.03.93.2"/><path class="cls-2" d="m17.7,48.96c3.95,1.64,7.95,4.23,10.47,7.9.05.77-.63,1.33-.99,1.95-.43.37-.7,1.13-1.32.89-.97-.95-2.08-1.99-3.12-2.56.2.55,1.12.7.89,1.43-.49.85-1.25,1.58-1.94,2.35-.67.29-1.22-.63-1.78-.97-.43-.21-.77-.67-1.27-.77-.49.72-.8,1.58-1.48,2.13-.87-.18-1.59-.74-2.42-1.04-.51-.17-1.01-.36-1.54-.51-.42.59-.65,1.8-1.58,1.72-3.48-2.02-7.47-2.8-11.35-3.87-.43-.52-.25-1.35-.29-1.99.06-.22.18-.48.42-.56,2.54-.29,4.64.14,7.05.46l.08-.08c-.32-.4.01-.88.01-1.31.1-.22.1-.53.38-.64,1.54-.2,3.18.37,4.66.62-.42-.4-.05-1.08.07-1.58.1-.25.12-.58.38-.75,1.63-.04,2.98.57,4.47.86v-.08c-2.17-1.4-4.51-2.37-7-3.06-.11-.67.14-1.38.21-2.07.35-.38.85-.05,1.28-.1,1.94.42,3.86.86,5.67,1.62"/></svg>